<svg xmlns="http://www.w3.org/2000/svg" xmlns:xlink="http://www.w3.org/1999/xlink" width="43px" height="39px" viewBox="0 0 43 39"><title>E6556C69-B8E8-422E-9DF1-A3525BBA6123</title><g id="Page-1" stroke="none" stroke-width="1" fill="none" fill-rule="evenodd"><g id="partnership-program" transform="translate(-168.000000, -5158.000000)" fill="#FFFFFF" fill-rule="nonzero"><g id="noun-quick-3844889" transform="translate(168.000000, 5158.000000)"><path d="M20.547674,23.8777998 C20.547674,24.279142 20.3858724,24.6636165 20.0979326,24.9471527 C19.8099929,25.2306889 19.4195471,25.390016 19.0119718,25.390016 L1.5356803,25.390016 C0.986872972,25.390016 0.479906949,25.10209 0.205674407,24.6339079 C-0.0685581356,24.1660627 -0.0685581356,23.5898738 0.205674407,23.1216916 C0.479906949,22.6538465 0.986890523,22.3655835 1.5356803,22.3655835 L19.0119718,22.3655835 C19.4195471,22.3655835 19.8099929,22.5249106 20.0979326,22.8087838 C20.3858724,23.0923201 20.547674,23.4767946 20.547674,23.8777911 L20.547674,23.8777998 Z M19.0119718,28.4144485 L6.14278701,28.4144485 C5.59397969,28.4144485 5.08701366,28.7027115 4.81278112,29.1705567 C4.53854858,29.6387388 4.53854858,30.2149364 4.81278112,30.6827729 C5.08701366,31.1509551 5.59399724,31.4388811 6.14278701,31.4388811 L18.9812577,31.4388811 C19.5297228,31.4388811 20.0366801,31.1509551 20.3112636,30.6827729 C20.5854962,30.2149278 20.5854962,29.6387388 20.3112636,29.1705567 C20.0366888,28.7027115 19.5297053,28.4144485 18.9812577,28.4144485 L19.0119718,28.4144485 Z M19.0119718,34.4633136 L10.7500692,34.4633136 C10.2012619,34.4633136 9.69429589,34.7515766 9.42006335,35.2194217 C9.1458308,35.6876039 9.1458308,36.2638015 9.42006335,36.731638 C9.69429589,37.1998202 10.2012795,37.4877461 10.7500692,37.4877461 L18.981521,37.4877461 C19.5299861,37.4877461 20.0369433,37.1998202 20.3115269,36.731638 C20.5857594,36.2637929 20.5857594,35.6876039 20.3115269,35.2194217 C20.0369521,34.7515766 19.5299685,34.4633136 18.981521,34.4633136 L19.0119718,34.4633136 Z M42.9689267,22.3655835 C42.9689267,26.7773664 41.1891794,31.0085475 38.0214206,34.1280337 C34.8533108,37.247347 30.5565037,38.9999393 26.0762898,38.9999393 C24.9372375,39.0029139 23.8008179,38.8965873 22.6826511,38.6825784 C23.3301822,37.841743 23.659972,36.8048379 23.6153928,35.7506071 C23.5704871,34.6961171 23.1536554,33.6901909 22.436851,32.9057395 C23.2012709,32.0777363 23.6276784,31.0002606 23.6345233,29.881307 C23.63658,28.7606251 23.2087739,27.680125 22.436851,26.8568744 C23.2297297,25.9839368 23.649266,24.8426888 23.6071439,23.672147 C23.5650218,22.5016052 23.0648479,21.3923297 22.2113222,20.5768563 C21.3577701,19.7610027 20.2169276,19.302274 19.0275043,19.2958795 L9.46051813,19.2958795 C9.9675017,16.6464766 11.1161807,14.1566774 12.8081735,12.0372415 L10.7504203,10.0109581 C10.4645339,9.72742185 10.3037678,9.34430402 10.3037678,8.94462958 C10.3037678,8.54530944 10.4645339,8.1618546 10.7504203,7.87864674 C11.0387111,7.5924058 11.4312014,7.43139365 11.8408566,7.43139365 C12.250152,7.43139365 12.6426424,7.5924058 12.9312929,7.87864674 L14.9585954,9.87494503 L14.9582526,9.87494503 C17.649856,7.55900742 21.0133072,6.1358823 24.5717486,5.80682404 L24.5717486,3.02443253 L23.0360464,3.02443253 C22.4872391,3.02443253 21.9802731,2.73616954 21.7060405,2.2683244 C21.431808,1.80047925 21.431808,1.22394464 21.7060405,0.756108132 C21.9802731,0.288262985 22.4872566,0 23.0360464,0 L29.0098404,0 C29.5586477,0 30.0656137,0.288262985 30.3398463,0.756108132 C30.6140788,1.22395328 30.6140788,1.80048789 30.3398463,2.2683244 C30.0656137,2.73616954 29.5586301,3.02443253 29.0098404,3.02443253 L27.6431531,3.02443253 L27.6431531,5.91285201 C31.8258795,6.28888402 35.7162082,8.18558343 38.5554145,11.2329152 C41.3947085,14.2806791 42.9791144,18.2603138 43,22.3956636 L42.9689267,22.3655835 Z M33.3247166,15.2581671 C33.0364258,14.9719261 32.6439354,14.810914 32.2342803,14.810914 C31.8249849,14.810914 31.4324945,14.9719261 31.1438439,15.2581671 L25.001035,21.3070321 C24.7189221,21.5905683 24.5612362,21.9720011 24.5619185,22.3686079 C24.5629491,22.765569 24.7220023,23.1463191 25.0051507,23.4285419 C25.2886413,23.7110671 25.6732514,23.8724163 26.0760178,23.8778432 C26.4842776,23.8801798 26.8767768,23.7225427 27.1664541,23.4393435 L33.3092631,17.3904784 C33.5975539,17.1093012 33.7607157,16.7271944 33.7635067,16.32752 C33.7665475,15.9278628 33.6085232,15.543734 33.3246903,15.2581671 L33.3247166,15.2581671 Z" id="Shape"></path></g></g></g></svg>