<svg xmlns="http://www.w3.org/2000/svg" xmlns:xlink="http://www.w3.org/1999/xlink" width="42px" height="41px" viewBox="0 0 42 41"><title>F6C6AB6C-63E0-49DE-9A6B-B08348B4C6B7</title><g id="Page-1" stroke="none" stroke-width="1" fill="none" fill-rule="evenodd"><g id="partnership-program" transform="translate(-166.000000, -4665.000000)" fill="#FFFFFF" fill-rule="nonzero"><g id="noun-user-75911" transform="translate(166.000000, 4665.000000)"><path d="M25.2665705,20.1638768 C25.1096219,20.1353622 24.9499871,20.1130215 24.787957,20.0980293 C24.787957,20.1050844 24.7852665,20.110964 24.7849675,20.1183126 C24.7849675,20.1200764 24.7846685,20.1212522 24.7846685,20.1221341 C24.7837717,20.1385959 24.7813801,20.1553521 24.7789885,20.170932 C24.7789885,20.1729896 24.7789885,20.1741656 24.7780917,20.1750474 C24.7622476,20.3314333 24.7066437,20.4822353 24.6151661,20.6242251 C24.1685423,21.5542926 22.9446603,23.1782046 22.18655,24.1468023 L22.0442494,22.1293105 C22.2400601,22.0302458 22.4089627,21.8709175 22.5246538,21.6842493 C22.6197198,21.5305048 22.6777146,21.3588347 22.6777146,21.1845157 C22.6777146,21.1845157 22.1461879,21.4158624 21.6033041,21.4158624 C21.0607188,21.4158624 20.5285875,21.1845157 20.5285875,21.1845157 C20.5285875,21.345605 20.5791099,21.5040529 20.6622173,21.6492711 C20.7770129,21.8506364 20.9566834,22.0243685 21.1644481,22.130191 L21.0170659,24.2002856 C20.3043764,23.2040695 19.0939331,21.4488388 18.719929,20.523437 C18.6637266,20.4134981 18.6281537,20.2997287 18.6152966,20.1830319 C18.6126061,20.1615724 18.6093177,20.1418768 18.6084208,20.1210058 C18.6081219,20.113363 18.6057303,20.1066014 18.6054314,20.0995463 C18.5333849,20.1060135 18.4622354,20.1133622 18.3919804,20.123651 C18.3830118,20.1248269 18.3740432,20.1257087 18.3650754,20.1274725 C15.8883217,20.4646493 13.9821787,22.5553259 13.9821787,25.0842457 C13.9821787,27.8501413 16.261637,27.8427665 19.0744358,27.8427665 L24.3188353,27.8427665 C27.1310218,27.8427665 29.4107863,27.8498214 29.4107863,25.0842457 C29.4110852,22.6372778 27.6260971,20.6007467 25.2665114,20.1638956 L25.2665705,20.1638768 Z" id="Path"></path><path d="M17.8454165,15.7818205 C17.848107,15.8179779 17.8510964,15.8538411 17.8543851,15.889705 C18.0998181,18.6235422 19.7267016,20.7357039 21.6973597,20.7357039 C23.693732,20.7357039 25.3372991,18.5683056 25.5489823,15.7830697 C25.5779804,15.5831793 25.594123,15.378578 25.594123,15.1695743 C25.594123,14.9605706 25.5782789,14.7562628 25.5489823,14.5560789 C25.2634856,12.6200122 23.6479668,11.1366752 21.6973597,11.1366752 C19.7455281,11.1366752 18.1303537,12.6209153 17.8457371,14.5578097 C17.816739,14.7571131 17.8011941,14.961421 17.8011941,15.1701312 C17.8011941,15.2553792 17.8044826,15.3385728 17.8092658,15.4220599 C17.8164405,15.5428806 17.8278007,15.6631069 17.8454387,15.7818656 L17.8454165,15.7818205 Z M18.7990619,15.6107374 C18.7622914,15.1627412 18.7497358,14.5398691 18.8977173,14.1003842 C18.9769416,13.8649211 19.1013035,13.6814888 19.2932264,13.6068215 C19.2932264,13.6068215 21.9858725,14.8952499 23.7971942,13.6068215 C23.7971942,13.6068215 24.6202023,14.8870472 24.6234931,15.6471906 C24.623792,15.7553686 24.607649,15.8532594 24.5699815,15.935565 L25.116753,15.3182466 C25.1146605,15.4822784 25.1018059,15.6436612 25.0781886,15.801522 C24.9499389,17.4827025 24.2280122,18.9074917 23.2199537,19.6339211 C22.7613681,19.9643326 22.244497,20.1501203 21.6965393,20.1501203 C21.5889222,20.1501203 21.4818944,20.1424775 21.3772621,20.1277788 C21.2726297,20.1142564 21.1685942,20.0927976 21.0660588,20.0657527 C20.1459337,19.8182339 19.3572878,19.0386824 18.8589217,17.9589341 C18.5820959,17.3589544 18.3946576,16.6660657 18.3249996,15.9199948 C18.4765681,15.957622 18.6622079,16.0299338 18.8654957,16.1686876 C18.8660935,16.1695696 18.8266328,15.9364605 18.7991293,15.6107449 L18.7990619,15.6107374 Z" id="Shape"></path><path d="M4.5107575,20.5875583 C4.5107575,11.6819677 11.8794882,4.43573375 20.9372451,4.43573375 C25.2083309,4.43573375 29.0969176,6.05219554 32.0211446,8.68880424 L27.9471247,12.6957933 L38.7723515,12.6966752 L38.7714546,2.05120572 L35.2085813,5.55466839 C31.4666268,2.11502134 26.4512062,0 20.9371901,0 C9.39257745,0 0,9.23595691 0,20.588064" id="Path"></path><path d="M37.4900079,20.4122159 C37.4900079,29.3178065 30.1212772,36.564793 21.0635203,36.564793 C16.7924345,36.564793 12.9038478,34.9477292 9.97962073,32.3114215 L14.0536407,28.3044325 L3.22764861,28.3035506 L3.2285454,38.94902 L6.79141872,35.4455574 C10.5333732,38.8849034 15.5487938,41 21.0628099,41 C32.6074226,41 42,31.7640431 42,20.4126886" id="Path"></path></g></g></g></svg>