<svg xmlns="http://www.w3.org/2000/svg" xmlns:xlink="http://www.w3.org/1999/xlink" width="52px" height="35px" viewBox="0 0 52 35"><title>EF6C9A84-8480-4C86-AB81-AC9B94CA23E7</title><g id="Page-1" stroke="none" stroke-width="1" fill="none" fill-rule="evenodd"><g id="partnership-program" transform="translate(-1029.000000, -4665.000000)" fill="#FFFFFF" fill-rule="nonzero"><g id="noun-team-5636138" transform="translate(1029.000000, 4665.000000)"><path d="M3.80223501,20.4416882 C3.80223501,22.8361414 5.77812599,24.7823421 8.20936682,24.7823421 C10.6404916,24.7823421 12.6164986,22.8362557 12.6164986,20.4416882 C12.6164986,18.0472349 10.6406076,16.1010343 8.20936682,16.1010343 C5.77824207,16.1010343 3.80223501,18.0471206 3.80223501,20.4416882 Z" id="Path"></path><path d="M33.6698417,34.7055188 C34.0271224,34.4112337 34.20939,33.7579007 34.20939,32.7656059 C34.20939,29.4493824 32.1422666,26.485039 29.0418716,25.2623759 C28.15138,25.8067382 27.1112486,26.1264826 25.9999768,26.1264826 C24.888705,26.1264826 23.8417369,25.8062924 22.958082,25.2623759 C19.857687,26.485039 17.7905635,29.4493824 17.7905635,32.7656059 C17.7905635,33.7578778 17.9723785,34.4107993 18.3301119,34.7055188 C18.9281489,35.2047815 20.299735,34.9743561 21.8921246,34.7055188 C23.1140129,34.4942879 24.5051339,34.2701159 26.0000232,34.2701159 C27.4949125,34.2701159 28.8796496,34.5005413 30.1079218,34.7055188 C31.7003114,34.9681027 33.0786646,35.2047815 33.6699345,34.7055188 L33.6698417,34.7055188 Z" id="Path"></path><path d="M34.8920782,29.2764147 C35.7630697,27.1315242 37.4139711,25.3457159 39.565827,24.3083672 C38.6104977,23.2906474 38.0124375,21.9331199 38.0124375,20.4415738 C38.0124375,18.1431502 39.4098265,16.1652827 41.4120658,15.269006 C41.0674717,14.2767341 40.6322023,13.3098871 40.0858289,12.375313 C39.7285481,11.7608376 39.7933859,11.0114635 40.2223062,10.4738119 L42.2894296,7.99624724 C42.4064068,7.86808197 42.40006,7.68900956 42.276281,7.56709765 L39.0588856,4.40452161 C38.9419084,4.28930891 38.7469425,4.28305555 38.6231635,4.38531912 L36.1271546,6.41497408 C35.5876062,6.85663038 34.827266,6.92093595 34.1838798,6.56234528 C32.9356432,5.83891058 31.5967545,5.28823777 30.1734815,4.91715182 C29.4843049,4.73807941 28.9710933,4.14905191 28.9125931,3.4572727 L28.60065,0.300984319 C28.5875014,0.134418627 28.4446727,0 28.2692069,0 L23.7255746,0 C23.5564579,0 23.4136315,0.134418627 23.3877823,0.307237677 L23.0821883,3.46352606 C23.0300465,4.14856033 22.5167908,4.73763356 21.8212999,4.91666024 C20.3975627,5.28775763 19.058674,5.83837327 17.8172856,6.55556604 C17.1670976,6.92041007 16.4067806,6.85655036 15.8671626,6.41489406 L13.3711536,4.38523909 C13.2410255,4.28297553 13.0397105,4.28922775 12.9354316,4.40444159 L9.71803614,7.56701763 C9.5947098,7.68848368 9.58790799,7.86800194 9.69853955,7.99616721 L11.765663,10.4608136 C12.2013851,11.0114292 12.2662228,11.7603003 11.9152912,12.3686024 C11.3625919,13.303268 10.9209734,14.2763911 10.5890543,15.2685831 C12.5844454,16.1648368 13.9818343,18.1493578 13.9818343,20.4411509 C13.9818343,21.9393275 13.3837974,23.2902587 12.4284448,24.3079442 C14.5798364,25.34487 16.2311906,27.1311012 17.1021937,29.2759918 C17.349299,28.6615164 17.6675912,28.078708 18.0380229,27.528138 C16.2439004,25.5882251 15.249629,23.0977422 15.249629,20.4411509 C15.249629,14.6089509 20.0725302,9.86508686 26.0007835,9.86508686 C31.9285725,9.86508686 36.751938,14.6089509 36.751938,20.4411509 C36.751938,23.1044871 35.7508183,25.5882251 33.9635441,27.528138 C34.3339757,28.0725003 34.6527206,28.661082 34.8993733,29.2759918 L34.8920782,29.2764147 Z" id="Path"></path><path d="M46.8323887,25.2626046 C45.9418971,25.8069669 44.9017657,26.1267112 43.7904939,26.1267112 C42.6791989,26.1267112 41.632254,25.806521 40.7485991,25.2626046 C37.6482041,26.4852676 35.5810806,29.449611 35.5810806,32.7658345 C35.5810806,33.7581065 35.7628956,34.411028 36.120629,34.7057475 C36.718666,35.2050101 38.0902521,34.9745847 39.6826417,34.7057475 C40.90453,34.4945166 42.2956511,34.2703445 43.7905403,34.2703445 C45.2854296,34.2703445 46.6701667,34.5007699 47.8984389,34.7057475 C49.4908285,34.9683314 50.8691817,35.2050101 51.4604516,34.7057475 C51.8177324,34.4114624 52,33.7581293 52,32.7658345 C52,29.449611 49.9328765,26.4852676 46.8324815,25.2626046 L46.8323887,25.2626046 Z" id="Path"></path><path d="M21.5925664,20.4416882 C21.5925664,22.8361414 23.5684574,24.7823421 25.9996982,24.7823421 C28.430939,24.7823421 30.40683,22.8362557 30.40683,20.4416882 C30.40683,18.0472349 28.430939,16.1010343 25.9996982,16.1010343 C23.5684574,16.1010343 21.5925664,18.0471206 21.5925664,20.4416882 Z" id="Path"></path><path d="M0.539455498,34.7055188 C1.13749246,35.2047815 2.5090786,34.9743561 4.10146822,34.7055188 C5.32335651,34.4942879 6.71447755,34.2701159 8.20936682,34.2701159 C9.70425609,34.2701159 11.0889932,34.5005413 12.3172654,34.7055188 C13.909655,34.9681027 15.2880082,35.2047815 15.8792781,34.7055188 C16.2365589,34.4112337 16.4188265,33.7579007 16.4188265,32.7656059 C16.4188265,29.4493824 14.351703,26.485039 11.251308,25.2623759 C10.3608165,25.8067382 9.32068507,26.1264826 8.20941325,26.1264826 C7.09811821,26.1264826 6.0511734,25.8062924 5.16751846,25.2623759 C2.06712345,26.485039 -1.06173052e-14,29.4493824 -1.06173052e-14,32.7656059 C-1.06173052e-14,33.7578778 0.181814935,34.4107993 0.539548356,34.7055188 L0.539455498,34.7055188 Z" id="Path"></path><path d="M43.7901457,24.7824564 C46.2212704,24.7824564 48.1972775,22.8363701 48.1972775,20.4418025 C48.1972775,18.0473492 46.2213865,16.1011486 43.7901457,16.1011486 C41.3590209,16.1011486 39.3830139,18.0472349 39.3830139,20.4418025 C39.3830139,22.8362557 41.3589049,24.7824564 43.7901457,24.7824564 L43.7901457,24.7824564 Z" id="Path"></path></g></g></g></svg>