<svg xmlns="http://www.w3.org/2000/svg" xmlns:xlink="http://www.w3.org/1999/xlink" width="49px" height="39px" viewBox="0 0 49 39"><title>7C2245FC-AE62-41B2-88CF-97D0DD47CD2A</title><g id="Page-1" stroke="none" stroke-width="1" fill="none" fill-rule="evenodd"><g id="partnership-program" transform="translate(-1030.000000, -5158.000000)" fill="#FFFFFF" fill-rule="nonzero"><g id="noun-team-1576524" transform="translate(1030.000000, 5158.000000)"><path d="M22.5238684,0 C19.3204343,0 16.7485704,2.55407754 16.7485704,5.73535738 C16.7485704,8.91632996 19.3204343,11.4707148 22.5238684,11.4707148 C25.726993,11.4707148 28.2991663,8.91632996 28.2991663,5.73535738 C28.2991663,2.55407754 25.726993,0 22.5238684,0 Z M6.93056383,6.30868828 C5.00326439,6.30868828 3.46559131,7.83572718 3.46559131,9.75010754 C3.46559131,11.6640782 5.00326439,13.1911171 6.93056383,13.1911171 C8.85817266,13.1911171 10.3959489,11.6640782 10.3959489,9.75010754 C10.3959489,7.8358296 8.85827579,6.30868828 6.93056383,6.30868828 L6.93056383,6.30868828 Z M36.3845835,16.0586934 L36.3845835,18.2094524 C36.3837778,18.7111323 36.054649,19.1540146 35.5724322,19.3028573 C34.3122828,19.6873209 33.1835215,20.3610308 32.2335881,21.2387453 C31.858534,21.5820064 31.3009806,21.6400155 30.8618517,21.3819653 L28.966832,20.2885604 L27.2341395,23.2998279 L29.1291592,24.3752074 C29.5606152,24.6272456 29.7789627,25.126529 29.6705933,25.6117914 C29.5283869,26.2350916 29.4542569,26.8800223 29.4542569,27.5293467 C29.4542569,28.1790603 29.5283818,28.8240012 29.6705933,29.4473117 C29.7789627,29.9325946 29.5606152,30.4318779 29.1291592,30.6838957 L27.2341395,31.7592752 L28.966832,34.7705426 L30.8618517,33.6771377 C31.30096,33.4186984 31.8585134,33.4771069 32.2335881,33.8203578 C33.1835111,34.6977036 34.3122828,35.371772 35.5724322,35.7562457 C36.054649,35.905068 36.3837791,36.34794 36.3845835,36.849241 L36.3845835,39 L39.8499685,39 L39.8499685,36.849241 C39.8507743,36.3479605 40.1795008,35.9050783 40.6621198,35.7562457 C41.9222692,35.3717822 43.0510306,34.6976626 44.000964,33.8203578 C44.376018,33.4770966 44.9335714,33.4186882 45.3722878,33.6771377 L47.2673075,34.7705426 L49,31.7592752 L47.1049804,30.6838957 C46.6739266,30.4318574 46.4551768,29.9325741 46.5635462,29.4473117 C46.7061548,28.8240115 46.7802849,28.1790808 46.7802849,27.5293467 C46.7802849,26.8800428 46.7061599,26.2351019 46.5635462,25.6117914 C46.4551768,25.1265085 46.6739266,24.6272251 47.1049804,24.3752074 L49,23.2998279 L47.2673075,20.2885604 L45.3722878,21.3819653 C44.9335818,21.6400052 44.3760283,21.5819962 44.000964,21.2387453 C43.0510409,20.361 41.9222692,19.6873311 40.6621198,19.3028573 C40.1795008,19.154035 39.850773,18.711163 39.8499685,18.2094524 L39.8499685,16.0586934 L36.3845835,16.0586934 Z M22.5238684,17.7793006 C17.0478546,17.7793006 12.7055524,21.9929448 12.7055524,27.2429475 L12.7055524,28.6767869 L27.2520842,28.6767869 C27.1920592,28.3015204 27.1437148,27.9254653 27.1437148,27.5294081 C27.1437148,26.988523 27.2460397,26.4844465 27.3241929,25.9703127 L25.0863681,24.6976779 C24.5413037,24.3784233 24.3564013,23.6835131 24.6714335,23.1381727 L27.1437767,18.8727055 C25.7736904,18.1681886 24.2005405,17.7793006 22.5238477,17.7793006 L22.5238684,17.7793006 Z M7.18323311,19.5001127 C3.19703995,19.5001127 0.0482649902,22.4758414 0,26.3824391 L10.431632,26.3824391 C10.569806,24.5284848 11.1539464,22.8058293 12.0736729,21.2924118 C10.8147611,20.1274174 9.13806835,19.5001127 7.18302685,19.5001127 L7.18323311,19.5001127 Z M38.1171729,23.5147604 C40.3497381,23.5147604 42.1597783,25.3122829 42.1597783,27.5294081 C42.1597783,29.7469431 40.3497381,31.5444656 38.1171729,31.5444656 C35.8846077,31.5444656 34.0745674,29.7469431 34.0745674,27.5294081 C34.0745674,25.3122829 35.8846077,23.5147604 38.1171729,23.5147604 Z" id="Shape"></path></g></g></g></svg>